# xmcd CD database file
#
# Track frame offsets:
#	150
#	19355
#	40730
#	66557
#	83423
#	109833
#	135193
#	148302
#	186316
#
# Disc length: 3075 seconds
#
# Revision: 0
# Processed by: cddbd v1.5.1PL2 Copyright (c) Steve Scherf et al.
# Submitted via: CDex 1.51
#
DISCID=7d0c0109
DTITLE=Chet Baker - At Ronnie Scott's
DYEAR=1968
DGENRE=Jazz
TTITLE0=Ellen David
TTITLE1=Just Friends
TTITLE2=Shiftin' Down
TTITLE3=Send in the Clowns
TTITLE4=If I Should Lose You
TTITLE5=My Ideal
TTITLE6=The Very Thought of You
TTITLE7=You Don't Know What Love Is
TTITLE8=Love For Sale
EXTD=YEAR: 1968
EXTT0=
EXTT1=
EXTT2=
EXTT3=
EXTT4=
EXTT5=
EXTT6=
EXTT7=
EXTT8=
PLAYORDER=
